<?xml version="1.0" encoding="UTF-8" standalone="no"?>
<!-- Created with Inkscape (http://www.inkscape.org/) -->

<svg
   id="svg3829"
   version="1.1"
   viewBox="0 0 40.227516 40.22752"
   height="40.22752mm"
   width="40.227516mm"
   sodipodi:docname="osh_clean.svg"
   xml:space="preserve"
   inkscape:version="1.2.2 (b0a8486541, 2022-12-01)"
   xmlns:inkscape="http://www.inkscape.org/namespaces/inkscape"
   xmlns:sodipodi="http://sodipodi.sourceforge.net/DTD/sodipodi-0.dtd"
   xmlns="http://www.w3.org/2000/svg"
   xmlns:svg="http://www.w3.org/2000/svg"
   xmlns:rdf="http://www.w3.org/1999/02/22-rdf-syntax-ns#"
   xmlns:cc="http://creativecommons.org/ns#"
   xmlns:dc="http://purl.org/dc/elements/1.1/"><title
     id="title5115">OSH gear logo - clean, part &amp; full</title><sodipodi:namedview
     id="namedview3831"
     pagecolor="#ffffff"
     bordercolor="#666666"
     borderopacity="1.0"
     inkscape:showpageshadow="2"
     inkscape:pageopacity="0.0"
     inkscape:pagecheckerboard="0"
     inkscape:deskcolor="#d1d1d1"
     inkscape:document-units="mm"
     showgrid="false"
     inkscape:zoom="1.6819304"
     inkscape:cx="75.805752"
     inkscape:cy="-47.861671"
     inkscape:window-width="1918"
     inkscape:window-height="1078"
     inkscape:window-x="0"
     inkscape:window-y="0"
     inkscape:window-maximized="1"
     inkscape:current-layer="layer1" /><defs
     id="defs3826" /><g
     inkscape:label="result"
     inkscape:groupmode="layer"
     id="layer1"
     transform="translate(-106.8316,-142.76315)"><path
       id="gear_full"
       style="display:inline;opacity:1;fill:#6000b0;fill-opacity:1;stroke:none;stroke-width:3.96875"
       inkscape:label="gear_full"
       d="M 19.953693,1.1630086 A 20.113853,20.113853 0 0 0 17.1704,1.3629964 L 16.093463,6.5812826 A 15.204329,15.204329 0 0 0 12.28491,8.1512125 L 7.845905,5.2314942 A 20.113853,20.113853 0 0 0 3.90816,9.1687215 L 6.827879,13.607727 A 15.204329,15.204329 0 0 0 5.258466,17.41628 l -5.21828598,1.076937 a 20.113853,20.113853 0 0 0 -0.200505,2.783292 20.113853,20.113853 0 0 0 0.200505,2.783293 L 5.258466,25.137256 a 15.204329,15.204329 0 0 0 1.569413,3.808036 L 3.90816,33.384297 a 20.113853,20.113853 0 0 0 3.938261,3.937745 l 4.438489,-2.919719 a 15.204329,15.204329 0 0 0 3.808553,1.56993 l 1.076937,5.217769 a 20.113853,20.113853 0 0 0 2.783293,0.200505 20.113853,20.113853 0 0 0 2.783292,-0.200505 l 1.076937,-5.218286 a 15.204329,15.204329 0 0 0 3.808549,-1.569413 l 4.43849,2.919719 a 20.113853,20.113853 0 0 0 3.93775,-3.937745 l -2.91972,-4.439005 a 15.204329,15.204329 0 0 0 1.56993,-3.808036 l 5.21828,-1.077454 a 20.113853,20.113853 0 0 0 0.19999,-2.783293 20.113853,20.113853 0 0 0 -0.19482,-2.781742 l -5.21208,-1.075903 a 15.204329,15.204329 0 0 0 -1.58027,-3.81217 l 2.92644,-4.4488246 A 20.113853,20.113853 0 0 0 32.072331,5.2237427 L 27.623511,8.150179 A 15.204329,15.204329 0 0 0 23.811338,6.5699138 L 22.735435,1.3578288 A 20.113853,20.113853 0 0 0 19.953693,1.1630086 Z m 0,14.4812864 a 5.6326017,5.6326017 0 0 1 5.632218,5.632214 5.6326017,5.6326017 0 0 1 -5.632218,5.632731 5.6326017,5.6326017 0 0 1 -5.632731,-5.632731 5.6326017,5.6326017 0 0 1 5.632731,-5.632214 z"
       transform="translate(106.99192,141.60014)"
       inkscape:export-filename="gear_full.png"
       inkscape:export-xdpi="300.23"
       inkscape:export-ydpi="300.23"><title
         id="title6326">OSH Cogwheel clean full</title></path></g><metadata
     id="metadata5113"><rdf:RDF><cc:Work
         rdf:about=""><dc:contributor><cc:Agent><dc:title>Macklin Chaffee
https://www.youtube.com/watch?v=dSkLGigmIKU
Robin Vobruba &lt;hoijui.quaero@gmail.com&gt;</dc:title></cc:Agent></dc:contributor><dc:subject><rdf:Bag><rdf:li>open source hardware</rdf:li><rdf:li>logo</rdf:li><rdf:li>osh</rdf:li><rdf:li>gear</rdf:li></rdf:Bag></dc:subject><dc:language>agnostic</dc:language><dc:source>https://www.oshwa.org/open-source-hardware-logo/</dc:source><dc:identifier>osh_gear_logo_clean_full</dc:identifier><dc:publisher><cc:Agent><dc:title>Open Source Ecology Germany</dc:title></cc:Agent></dc:publisher><dc:rights><cc:Agent><dc:title>Open Source Ecology Germany</dc:title></cc:Agent></dc:rights><dc:creator><cc:Agent><dc:title>Robin Vobruba &lt;hoijui.quaero@gmail.com&gt;</dc:title></cc:Agent></dc:creator><dc:date>16.10.2023</dc:date><dc:description>This is a clean reproduction of the well known OSH logo gear, as the original SVG does not have a clean path, which can be seen by copying and flipping it horizontally, and then trying to make it overlap.</dc:description><dc:title>OSH gear logo - clean, part &amp; full</dc:title><cc:license
           rdf:resource="http://creativecommons.org/licenses/by-sa/4.0/" /></cc:Work><cc:License
         rdf:about="http://creativecommons.org/licenses/by-sa/4.0/"><cc:permits
           rdf:resource="http://creativecommons.org/ns#Reproduction" /><cc:permits
           rdf:resource="http://creativecommons.org/ns#Distribution" /><cc:requires
           rdf:resource="http://creativecommons.org/ns#Notice" /><cc:requires
           rdf:resource="http://creativecommons.org/ns#Attribution" /><cc:permits
           rdf:resource="http://creativecommons.org/ns#DerivativeWorks" /><cc:requires
           rdf:resource="http://creativecommons.org/ns#ShareAlike" /></cc:License></rdf:RDF></metadata></svg>
