<?xml version="1.0" encoding="UTF-8" standalone="no"?>
<!-- Created with Inkscape (http://www.inkscape.org/) -->

<svg
   id="svg3829"
   version="1.1"
   viewBox="0 0 40.22752 36.159031"
   height="36.159031mm"
   width="40.22752mm"
   xml:space="preserve"
   xmlns="http://www.w3.org/2000/svg"
   xmlns:svg="http://www.w3.org/2000/svg"
   xmlns:rdf="http://www.w3.org/1999/02/22-rdf-syntax-ns#"
   xmlns:cc="http://creativecommons.org/ns#"
   xmlns:dc="http://purl.org/dc/elements/1.1/"><title
     id="title5115">OSH gear logo - clean, part &amp; full</title><defs
     id="defs3826" /><g
     id="layer1"
     transform="translate(-106.83172,-142.76338)"><path
       id="gear"
       style="opacity:1;fill:#0099b0;fill-opacity:1;stroke:none;stroke-width:3.96875"
       d="m 19.953821,1.1632365 a 20.113853,20.113853 0 0 0 -2.783293,0.1999878 l -1.076937,5.2182861 a 15.204329,15.204329 0 0 0 -3.808553,1.56993 L 7.8460327,5.231722 A 20.113853,20.113853 0 0 0 3.9082886,9.1689494 L 6.828007,13.607955 a 15.204329,15.204329 0 0 0 -1.5694133,3.808553 l -5.21828608,1.076937 a 20.113853,20.113853 0 0 0 -0.20050456,2.783292 20.113853,20.113853 0 0 0 0.20050456,2.783293 L 5.2585937,25.137484 A 15.204329,15.204329 0 0 0 6.828007,28.94552 l -2.9197184,4.439006 a 20.113853,20.113853 0 0 0 3.9382609,3.937744 l 4.4384885,-2.919719 a 15.204329,15.204329 0 0 0 1.977141,0.960665 l 3.58376,-8.870776 a 5.6326017,5.6326017 0 0 1 -3.524849,-5.215703 5.6326017,5.6326017 0 0 1 5.632731,-5.632214 5.6326017,5.6326017 0 0 1 5.632214,5.632214 5.6326017,5.6326017 0 0 1 -3.522782,5.221904 l 3.581177,8.864058 a 15.204329,15.204329 0 0 0 1.978173,-0.960148 l 4.438489,2.919719 a 20.113853,20.113853 0 0 0 3.937744,-3.937744 L 33.079118,28.94552 a 15.204329,15.204329 0 0 0 1.56993,-3.808036 l 5.218286,-1.077454 a 20.113853,20.113853 0 0 0 0.199988,-2.783293 20.113853,20.113853 0 0 0 -0.19482,-2.781742 L 34.660417,17.419092 A 15.204329,15.204329 0 0 0 33.080151,13.606921 L 36.006588,9.1580973 A 20.113853,20.113853 0 0 0 32.072461,5.2239705 L 27.623637,8.1504069 A 15.204329,15.204329 0 0 0 23.811466,6.5701416 L 22.735563,1.3580566 A 20.113853,20.113853 0 0 0 19.953821,1.1632365 Z"
       transform="translate(106.99192,141.60014)"><title
         id="title6314">OSH Cogwheel clean</title></path></g><metadata
     id="metadata5113"><rdf:RDF><cc:Work
         rdf:about=""><dc:contributor><cc:Agent><dc:title>Macklin Chaffee
https://www.youtube.com/watch?v=dSkLGigmIKU
Robin Vobruba &lt;hoijui.quaero@gmail.com&gt;</dc:title></cc:Agent></dc:contributor><dc:subject><rdf:Bag><rdf:li>open source hardware</rdf:li><rdf:li>logo</rdf:li><rdf:li>osh</rdf:li><rdf:li>gear</rdf:li></rdf:Bag></dc:subject><dc:language>agnostic</dc:language><dc:source>https://www.oshwa.org/open-source-hardware-logo/</dc:source><dc:identifier>osh_gear_logo_clean_full</dc:identifier><dc:publisher><cc:Agent><dc:title>Open Source Ecology Germany</dc:title></cc:Agent></dc:publisher><dc:rights><cc:Agent><dc:title>Open Source Ecology Germany</dc:title></cc:Agent></dc:rights><dc:creator><cc:Agent><dc:title>Robin Vobruba &lt;hoijui.quaero@gmail.com&gt;</dc:title></cc:Agent></dc:creator><dc:date>16.10.2023</dc:date><dc:description>This is a clean reproduction of the well known OSH logo gear, as the original SVG does not have a clean path, which can be seen by copying and flipping it horizontally, and then trying to make it overlap.</dc:description><dc:title>OSH gear logo - clean, part &amp; full</dc:title><cc:license
           rdf:resource="http://creativecommons.org/licenses/by-sa/4.0/" /></cc:Work><cc:License
         rdf:about="http://creativecommons.org/licenses/by-sa/4.0/"><cc:permits
           rdf:resource="http://creativecommons.org/ns#Reproduction" /><cc:permits
           rdf:resource="http://creativecommons.org/ns#Distribution" /><cc:requires
           rdf:resource="http://creativecommons.org/ns#Notice" /><cc:requires
           rdf:resource="http://creativecommons.org/ns#Attribution" /><cc:permits
           rdf:resource="http://creativecommons.org/ns#DerivativeWorks" /><cc:requires
           rdf:resource="http://creativecommons.org/ns#ShareAlike" /></cc:License></rdf:RDF></metadata></svg>
