<?xml version="1.0" encoding="UTF-8" standalone="no"?>
<!-- Created with Inkscape (http://www.inkscape.org/) -->

<svg
   id="svg3829"
   version="1.1"
   viewBox="0 0 40.227646 40.22752"
   height="40.22752mm"
   width="40.227646mm"
   sodipodi:docname="osh_clean_full.svg"
   xml:space="preserve"
   inkscape:version="1.2.2 (b0a8486541, 2022-12-01)"
   xmlns:inkscape="http://www.inkscape.org/namespaces/inkscape"
   xmlns:sodipodi="http://sodipodi.sourceforge.net/DTD/sodipodi-0.dtd"
   xmlns="http://www.w3.org/2000/svg"
   xmlns:svg="http://www.w3.org/2000/svg"
   xmlns:rdf="http://www.w3.org/1999/02/22-rdf-syntax-ns#"
   xmlns:cc="http://creativecommons.org/ns#"
   xmlns:dc="http://purl.org/dc/elements/1.1/"><title
     id="title5115">OSH gear logo - clean, part &amp; full</title><sodipodi:namedview
     id="namedview3831"
     pagecolor="#ffffff"
     bordercolor="#666666"
     borderopacity="1.0"
     inkscape:showpageshadow="2"
     inkscape:pageopacity="0.0"
     inkscape:pagecheckerboard="0"
     inkscape:deskcolor="#d1d1d1"
     inkscape:document-units="mm"
     showgrid="false"
     inkscape:zoom="1.6819304"
     inkscape:cx="75.805752"
     inkscape:cy="-47.861671"
     inkscape:window-width="1918"
     inkscape:window-height="1078"
     inkscape:window-x="0"
     inkscape:window-y="0"
     inkscape:window-maximized="1"
     inkscape:current-layer="layer1" /><defs
     id="defs3826" /><g
     inkscape:label="result"
     inkscape:groupmode="layer"
     id="layer1"
     transform="translate(-106.8316,-142.76315)"><path
       id="gear_full"
       style="display:inline;opacity:1;fill:#6000b0;fill-opacity:1;stroke:none;stroke-width:3.96875"
       inkscape:label="gear_full"
       d="M 19.953693,1.1630086 A 20.113853,20.113853 0 0 0 17.1704,1.3629964 L 16.093463,6.5812826 A 15.204329,15.204329 0 0 0 12.28491,8.1512125 L 7.845905,5.2314942 A 20.113853,20.113853 0 0 0 3.90816,9.1687215 L 6.827879,13.607727 A 15.204329,15.204329 0 0 0 5.258466,17.41628 l -5.21828598,1.076937 a 20.113853,20.113853 0 0 0 -0.200505,2.783292 20.113853,20.113853 0 0 0 0.200505,2.783293 L 5.258466,25.137256 a 15.204329,15.204329 0 0 0 1.569413,3.808036 L 3.90816,33.384297 a 20.113853,20.113853 0 0 0 3.938261,3.937745 l 4.438489,-2.919719 a 15.204329,15.204329 0 0 0 3.808553,1.56993 l 1.076937,5.217769 a 20.113853,20.113853 0 0 0 2.783293,0.200505 20.113853,20.113853 0 0 0 2.783292,-0.200505 l 1.076937,-5.218286 a 15.204329,15.204329 0 0 0 3.808549,-1.569413 l 4.43849,2.919719 a 20.113853,20.113853 0 0 0 3.93775,-3.937745 l -2.91972,-4.439005 a 15.204329,15.204329 0 0 0 1.56993,-3.808036 l 5.21828,-1.077454 a 20.113853,20.113853 0 0 0 0.19999,-2.783293 20.113853,20.113853 0 0 0 -0.19482,-2.781742 l -5.21208,-1.075903 a 15.204329,15.204329 0 0 0 -1.58027,-3.81217 l 2.92644,-4.4488246 A 20.113853,20.113853 0 0 0 32.072331,5.2237427 L 27.623511,8.150179 A 15.204329,15.204329 0 0 0 23.811338,6.5699138 L 22.735435,1.3578288 A 20.113853,20.113853 0 0 0 19.953693,1.1630086 Z m 0,14.4812864 a 5.6326017,5.6326017 0 0 1 5.632218,5.632214 5.6326017,5.6326017 0 0 1 -5.632218,5.632731 5.6326017,5.6326017 0 0 1 -5.632731,-5.632731 5.6326017,5.6326017 0 0 1 5.632731,-5.632214 z"
       transform="translate(106.99192,141.60014)"
       inkscape:export-filename="gear_full.png"
       inkscape:export-xdpi="300.23"
       inkscape:export-ydpi="300.23"><title
         id="title6326">OSH Cogwheel clean full</title></path><path
       id="gear"
       style="opacity:1;fill:#0099b0;fill-opacity:1;stroke:none;stroke-width:3.96875"
       inkscape:label="gear"
       d="m 19.953821,1.1632365 a 20.113853,20.113853 0 0 0 -2.783293,0.1999878 l -1.076937,5.2182861 a 15.204329,15.204329 0 0 0 -3.808553,1.56993 L 7.8460327,5.231722 A 20.113853,20.113853 0 0 0 3.9082886,9.1689494 L 6.828007,13.607955 a 15.204329,15.204329 0 0 0 -1.5694133,3.808553 l -5.21828608,1.076937 a 20.113853,20.113853 0 0 0 -0.20050456,2.783292 20.113853,20.113853 0 0 0 0.20050456,2.783293 L 5.2585937,25.137484 A 15.204329,15.204329 0 0 0 6.828007,28.94552 l -2.9197184,4.439006 a 20.113853,20.113853 0 0 0 3.9382609,3.937744 l 4.4384885,-2.919719 a 15.204329,15.204329 0 0 0 1.977141,0.960665 l 3.58376,-8.870776 a 5.6326017,5.6326017 0 0 1 -3.524849,-5.215703 5.6326017,5.6326017 0 0 1 5.632731,-5.632214 5.6326017,5.6326017 0 0 1 5.632214,5.632214 5.6326017,5.6326017 0 0 1 -3.522782,5.221904 l 3.581177,8.864058 a 15.204329,15.204329 0 0 0 1.978173,-0.960148 l 4.438489,2.919719 a 20.113853,20.113853 0 0 0 3.937744,-3.937744 L 33.079118,28.94552 a 15.204329,15.204329 0 0 0 1.56993,-3.808036 l 5.218286,-1.077454 a 20.113853,20.113853 0 0 0 0.199988,-2.783293 20.113853,20.113853 0 0 0 -0.19482,-2.781742 L 34.660417,17.419092 A 15.204329,15.204329 0 0 0 33.080151,13.606921 L 36.006588,9.1580973 A 20.113853,20.113853 0 0 0 32.072461,5.2239705 L 27.623637,8.1504069 A 15.204329,15.204329 0 0 0 23.811466,6.5701416 L 22.735563,1.3580566 A 20.113853,20.113853 0 0 0 19.953821,1.1632365 Z"
       transform="translate(106.99192,141.60014)"
       inkscape:export-filename="gear_part.png"
       inkscape:export-xdpi="300.23"
       inkscape:export-ydpi="300.23"><title
         id="title6314">OSH Cogwheel clean</title></path></g><g
     inkscape:groupmode="layer"
     id="layer4"
     inkscape:label="orig"
     transform="translate(0.16032498,-1.1630086)"
     style="display:inline"><path
       fill="#0099b0"
       d="m -19.341282,-39.972326 -4.349485,-0.808831 c -0.105834,-0.01984 -0.221721,-0.119327 -0.25744,-0.221456 l -1.333235,-3.110442 c -0.04974,-0.09604 -0.04022,-0.246856 0.02117,-0.336285 l 2.53418,-3.693584 c 0.06059,-0.0889 0.04868,-0.224102 -0.02778,-0.300566 l -3.16521,-3.165211 c -0.07646,-0.07646 -0.211402,-0.0889 -0.300302,-0.02778 l -3.758406,2.579158 c -0.0889,0.06112 -0.2413,0.07197 -0.337873,0.02434 l -3.015192,-1.234281 c -0.102394,-0.03387 -0.202141,-0.148431 -0.22225,-0.254529 l -0.837406,-4.498711 c -0.01958,-0.106098 -0.12409,-0.192881 -0.23204,-0.192881 h -4.47675 c -0.107685,0 -0.212195,0.08678 -0.231775,0.192881 l -0.837141,4.498711 c -0.02011,0.106098 -0.119592,0.220662 -0.22225,0.254529 l -3.015456,1.234281 c -0.09684,0.04762 -0.249238,0.03678 -0.337873,-0.02434 l -3.758141,-2.579158 c -0.08917,-0.06112 -0.224367,-0.04868 -0.300567,0.02778 l -3.165475,3.165211 c -0.0762,0.07646 -0.0889,0.211666 -0.02778,0.300566 l 2.534444,3.693584 c 0.06085,0.08943 0.07038,0.240241 0.0209,0.336285 l -1.3335,3.110442 c -0.03545,0.102129 -0.151077,0.201612 -0.25744,0.221456 l -4.34922,0.808831 c -0.106363,0.02011 -0.192882,0.124354 -0.192882,0.232304 l 2.65e-4,4.476486 c 0,0.10795 0.08678,0.212989 0.192881,0.232304 l 4.242594,0.789516 c 0.106098,0.01932 0.219604,0.120121 0.251883,0.223044 l 1.324504,3.308615 c 0.04736,0.0971 0.03625,0.248973 -0.02513,0.337873 l -2.409825,3.511814 c -0.06085,0.0889 -0.04842,0.224367 0.02778,0.300831 l 3.16574,3.165211 c 0.0762,0.07593 0.211402,0.08837 0.300566,0.02778 l 3.449637,-2.367756 c 0.0889,-0.06085 0.23786,-0.06562 0.330729,-0.01138 l 1.521354,0.812271 c 0.09631,0.04921 0.208756,0.0077 0.250031,-0.09207 l 3.1369,-7.579519 c 0.04154,-0.09975 0,-0.227013 -0.09208,-0.283369 l -0.380735,-0.233098 c -0.07038,-0.04286 -0.165894,-0.116681 -0.240771,-0.184414 -1.373452,-0.879475 -2.284677,-2.418027 -2.284677,-4.170098 0,-2.734204 2.216679,-4.950619 4.950619,-4.950619 2.733939,0 4.950354,2.216415 4.950354,4.950619 0,1.752071 -0.910961,3.290623 -2.284677,4.170098 -0.07435,0.06773 -0.170127,0.141552 -0.240242,0.184414 l -0.380735,0.233098 c -0.09155,0.05636 -0.13335,0.183621 -0.09207,0.283369 l 3.136635,7.579783 c 0.04127,0.09975 0.153458,0.141023 0.250031,0.09208 l 1.521355,-0.812271 c 0.09313,-0.05424 0.241829,-0.04974 0.330729,0.01138 l 3.449902,2.367757 c 0.0889,0.06059 0.224366,0.04815 0.300302,-0.02778 l 3.165739,-3.16521 c 0.07646,-0.07647 0.0889,-0.211931 0.02778,-0.300831 l -2.41009,-3.511815 c -0.06085,-0.0889 -0.07223,-0.240771 -0.02487,-0.337873 l 1.324504,-3.308614 c 0.03254,-0.102923 0.145257,-0.203729 0.251619,-0.223044 l 4.242594,-0.789517 c 0.105833,-0.01931 0.192881,-0.124354 0.192881,-0.232304 l 5.29e-4,-4.476485 c 2.65e-4,-0.108215 -0.08652,-0.212461 -0.192352,-0.232569"
       id="orig_oshwa"
       style="stroke-width:0.264583"
       inkscape:label="orig_oshwa" /><path
       fill="#0099b0"
       d="M 39.909215,-40.669627 34.994867,-41.5835 c -0.119579,-0.02242 -0.250516,-0.134824 -0.290874,-0.250216 l -1.506381,-3.514392 c -0.0562,-0.108513 -0.04544,-0.278915 0.02392,-0.379958 l 2.863291,-4.173266 c 0.06846,-0.100445 0.055,-0.253206 -0.03139,-0.3396 l -3.576272,-3.576274 c -0.08639,-0.08639 -0.238857,-0.100445 -0.339302,-0.03139 l -4.246507,2.914111 c -0.100445,0.06906 -0.272637,0.08132 -0.381752,0.0275 l -3.406772,-1.394576 c -0.115692,-0.03827 -0.228393,-0.167708 -0.251113,-0.287584 L 22.905556,-57.6721 c -0.02212,-0.119876 -0.140206,-0.21793 -0.262175,-0.21793 H 17.58524 c -0.12167,0 -0.239753,0.09805 -0.261876,0.21793 l -0.945859,5.082955 c -0.02272,0.119876 -0.135124,0.249319 -0.251114,0.287584 l -3.40707,1.394576 c -0.109416,0.0538 -0.281606,0.04156 -0.381752,-0.0275 l -4.2462067,-2.914111 c -0.1007505,-0.06906 -0.2535054,-0.055 -0.3396014,0.03139 l -3.576572,3.576274 c -0.086096,0.08639 -0.1004454,0.239155 -0.031388,0.3396 l 2.8635897,4.173266 c 0.068753,0.101044 0.07952,0.271441 0.023614,0.379958 l -1.5066803,3.514392 c -0.040054,0.115392 -0.1706973,0.227795 -0.2908735,0.250216 l -4.91404887,0.913873 c -0.12017626,0.02272 -0.2179314,0.140504 -0.2179314,0.262473 l 2.9942e-4,5.057843 c 0,0.121969 0.09805,0.24065 0.21793026,0.262473 l 4.79357549,0.89205 c 0.1198768,0.02183 0.2481237,0.135721 0.2845947,0.25201 l 1.4965161,3.738302 c 0.053511,0.10971 0.040958,0.281307 -0.028394,0.381752 l -2.7227865,3.96789 c -0.068753,0.100445 -0.054708,0.253505 0.031388,0.3399 l 3.5768715,3.576273 c 0.086096,0.08579 0.2388566,0.09985 0.3396002,0.03139 l 3.8976373,-2.675254 c 0.100445,-0.06875 0.26875,-0.07414 0.37368,-0.01286 l 1.718931,0.91776 c 0.108818,0.0556 0.235867,0.0087 0.282502,-0.104027 l 3.544286,-8.563864 c 0.04694,-0.112704 0,-0.256495 -0.104038,-0.32017 l -0.430181,-0.26337 c -0.07952,-0.04843 -0.187438,-0.131834 -0.272039,-0.208363 -1.551821,-0.993692 -2.581386,-2.732054 -2.581386,-4.711665 0,-3.089292 2.504557,-5.593551 5.593551,-5.593551 3.088993,0 5.593251,2.504259 5.593251,5.593551 0,1.979611 -1.029266,3.717973 -2.581385,4.711665 -0.08401,0.07653 -0.192222,0.159935 -0.271442,0.208363 l -0.430181,0.26337 c -0.10344,0.06368 -0.150668,0.207468 -0.104027,0.32017 l 3.543986,8.564162 c 0.04663,0.112705 0.173388,0.159338 0.282503,0.104038 l 1.718932,-0.917759 c 0.105224,-0.06128 0.273235,-0.0562 0.37368,0.01286 l 3.897937,2.675255 c 0.100446,0.06846 0.253505,0.0544 0.339302,-0.03139 l 3.576871,-3.576273 c 0.08639,-0.0864 0.100445,-0.239454 0.03139,-0.339899 l -2.723086,-3.967891 c -0.06875,-0.100446 -0.08161,-0.27204 -0.0281,-0.381752 l 1.496516,-3.738301 c 0.03677,-0.116289 0.164121,-0.230187 0.284296,-0.25201 l 4.793576,-0.892051 c 0.119577,-0.02182 0.21793,-0.140504 0.21793,-0.262473 l 5.98e-4,-5.057842 c 2.99e-4,-0.122269 -0.09776,-0.240053 -0.217333,-0.262772"
       id="orig_oshwa_template"
       style="stroke-width:0.264583"
       inkscape:label="orig_oshwa_template" /><path
       fill="#0099b0"
       d="m -19.341282,-34.969636 -4.349485,0.808832 c -0.105834,0.01984 -0.221721,0.119327 -0.25744,0.221456 l -1.333235,3.110441 c -0.04974,0.09604 -0.04022,0.246856 0.02117,0.336285 l 2.53418,3.693585 c 0.06059,0.0889 0.04868,0.224102 -0.02778,0.300566 l -3.16521,3.165211 c -0.07646,0.07646 -0.211402,0.0889 -0.300302,0.02778 l -3.758406,-2.579158 c -0.0889,-0.06112 -0.2413,-0.07197 -0.337873,-0.02434 l -3.015192,1.234281 c -0.102394,0.03387 -0.202141,0.148431 -0.22225,0.254529 l -0.837406,4.498711 c -0.01958,0.106098 -0.12409,0.192881 -0.23204,0.192881 h -4.47675 c -0.107685,0 -0.212195,-0.08678 -0.231775,-0.192881 l -0.837141,-4.498711 c -0.02011,-0.106098 -0.119592,-0.220662 -0.22225,-0.254529 l -3.015456,-1.234281 c -0.09684,-0.04762 -0.249238,-0.03678 -0.337873,0.02434 l -3.758141,2.579158 c -0.08917,0.06112 -0.224367,0.04868 -0.300567,-0.02778 l -3.165475,-3.165211 c -0.0762,-0.07646 -0.0889,-0.211666 -0.02778,-0.300566 l 2.534444,-3.693585 c 0.06085,-0.08943 0.07038,-0.240241 0.0209,-0.336285 l -1.3335,-3.110441 c -0.03545,-0.102129 -0.151077,-0.201612 -0.25744,-0.221456 l -4.34922,-0.808832 c -0.106363,-0.02011 -0.192882,-0.124354 -0.192882,-0.232304 l 2.65e-4,-4.476486 c 0,-0.10795 0.08678,-0.212989 0.192881,-0.232304 l 4.242594,-0.789516 c 0.106098,-0.01932 0.219604,-0.120121 0.251883,-0.223044 l 1.324504,-3.308615 c 0.04736,-0.0971 0.03625,-0.248973 -0.02513,-0.337873 l -2.409825,-3.511814 c -0.06085,-0.0889 -0.04842,-0.224367 0.02778,-0.300831 l 3.16574,-3.165211 c 0.0762,-0.07593 0.211402,-0.08837 0.300566,-0.02778 l 3.449637,2.367756 c 0.0889,0.06085 0.23786,0.06562 0.330729,0.01138 l 1.521354,-0.812271 c 0.09631,-0.04921 0.208756,-0.0077 0.250031,0.09207 l 3.1369,7.579519 c 0.04154,0.09975 0,0.227013 -0.09208,0.283369 l -0.380735,0.233098 c -0.07038,0.04286 -0.165894,0.116681 -0.240771,0.184414 -1.373452,0.879475 -2.284677,2.418027 -2.284677,4.170098 0,2.734204 2.216679,4.95062 4.950619,4.95062 2.733939,0 4.950354,-2.216416 4.950354,-4.95062 0,-1.752071 -0.910961,-3.290623 -2.284677,-4.170098 -0.07435,-0.06773 -0.170127,-0.141552 -0.240242,-0.184414 l -0.380735,-0.233098 c -0.09155,-0.05636 -0.13335,-0.183621 -0.09207,-0.283369 l 3.136635,-7.579783 c 0.04127,-0.09975 0.153458,-0.141023 0.250031,-0.09208 l 1.521355,0.812271 c 0.09313,0.05424 0.241829,0.04974 0.330729,-0.01138 l 3.449902,-2.367757 c 0.0889,-0.06059 0.224366,-0.04815 0.300302,0.02778 l 3.165739,3.16521 c 0.07646,0.07647 0.0889,0.211931 0.02778,0.300831 l -2.41009,3.511815 c -0.06085,0.0889 -0.07223,0.240771 -0.02487,0.337873 l 1.324504,3.308614 c 0.03254,0.102923 0.145257,0.203729 0.251619,0.223044 l 4.242594,0.789517 c 0.105833,0.01931 0.192881,0.124354 0.192881,0.232304 l 5.29e-4,4.476485 c 2.65e-4,0.108215 -0.08652,0.212461 -0.192352,0.232569"
       id="orig_oshwa_flipped"
       style="display:inline;opacity:0.5;fill:#00ffff;stroke-width:0.264583"
       inkscape:label="orig_oshwa_flipped" /></g><g
     inkscape:groupmode="layer"
     id="layer3"
     inkscape:label="perfect_source"
     transform="translate(0.16032498,-1.1853686)"><circle
       style="opacity:0.3;fill:#ff0000;fill-opacity:1;stroke:none;stroke-width:3.96875"
       id="limit_outer"
       cx="20.114016"
       cy="-38.014"
       r="20.113853"
       inkscape:label="limit_outer" /><path
       sodipodi:type="star"
       style="opacity:0.3;fill:#4d4d4d;fill-opacity:1;stroke:none;stroke-width:3.96875"
       id="src_star"
       inkscape:flatsided="false"
       sodipodi:sides="8"
       sodipodi:cx="162.27264"
       sodipodi:cy="27.069704"
       sodipodi:r1="33.396198"
       sodipodi:r2="12.022631"
       sodipodi:arg1="-0.78539816"
       sodipodi:arg2="-0.39269908"
       inkscape:rounded="0"
       inkscape:randomized="0"
       d="m 185.88732,3.4550259 -12.50721,19.0138161 22.28873,4.600862 -22.28873,4.600862 12.50721,19.013816 -19.01381,-12.507216 -4.60087,22.288736 -4.60086,-22.288736 -19.01381,12.507216 12.50721,-19.013816 -22.28873,-4.600862 22.28873,-4.600862 -12.50721,-19.0138163 19.01381,12.5072163 4.60086,-22.2887362 4.60087,22.2887362 z"
       inkscape:transform-center-x="2.0443797e-06"
       transform="translate(-142.15863,-65.083703)"
       inkscape:label="src_star" /><circle
       style="opacity:0.3;fill:#00ff00;fill-opacity:1;stroke:none;stroke-width:3.96875"
       id="limit_inner"
       cx="20.114016"
       cy="-38.014"
       r="15.204329"
       inkscape:label="limit_inner" /><circle
       style="opacity:0.3;fill:#ff00ff;fill-opacity:1;stroke:none;stroke-width:3.96875"
       id="hole"
       cx="20.114016"
       cy="-38.014"
       r="5.6326017"
       inkscape:label="hole" /><path
       style="opacity:0.5;fill:#ffff00;fill-opacity:1;stroke:none;stroke-width:3.96875"
       id="cutout"
       sodipodi:type="arc"
       sodipodi:cx="20.114014"
       sodipodi:cy="-38.036358"
       sodipodi:rx="24.864756"
       sodipodi:ry="24.864756"
       sodipodi:start="1.1868239"
       sodipodi:end="1.9547688"
       sodipodi:arc-type="slice"
       d="m 29.428515,-14.982158 a 24.864756,24.864756 0 0 1 -18.629003,0 l 9.314502,-23.0542 z"
       transform="translate(0,0.02235999)"
       inkscape:label="cutout" /></g><metadata
     id="metadata5113"><rdf:RDF><cc:Work
         rdf:about=""><dc:contributor><cc:Agent><dc:title>Macklin Chaffee
https://www.youtube.com/watch?v=dSkLGigmIKU
Robin Vobruba &lt;hoijui.quaero@gmail.com&gt;</dc:title></cc:Agent></dc:contributor><dc:subject><rdf:Bag><rdf:li>open source hardware</rdf:li><rdf:li>logo</rdf:li><rdf:li>osh</rdf:li><rdf:li>gear</rdf:li></rdf:Bag></dc:subject><dc:language>agnostic</dc:language><dc:source>https://www.oshwa.org/open-source-hardware-logo/</dc:source><dc:identifier>osh_gear_logo_clean_full</dc:identifier><dc:publisher><cc:Agent><dc:title>Open Source Ecology Germany</dc:title></cc:Agent></dc:publisher><dc:rights><cc:Agent><dc:title>Open Source Ecology Germany</dc:title></cc:Agent></dc:rights><dc:creator><cc:Agent><dc:title>Robin Vobruba &lt;hoijui.quaero@gmail.com&gt;</dc:title></cc:Agent></dc:creator><dc:date>16.10.2023</dc:date><dc:description>This is a clean reproduction of the well known OSH logo gear, as the original SVG does not have a clean path, which can be seen by copying and flipping it horizontally, and then trying to make it overlap.</dc:description><dc:title>OSH gear logo - clean, part &amp; full</dc:title><cc:license
           rdf:resource="http://creativecommons.org/licenses/by-sa/4.0/" /></cc:Work><cc:License
         rdf:about="http://creativecommons.org/licenses/by-sa/4.0/"><cc:permits
           rdf:resource="http://creativecommons.org/ns#Reproduction" /><cc:permits
           rdf:resource="http://creativecommons.org/ns#Distribution" /><cc:requires
           rdf:resource="http://creativecommons.org/ns#Notice" /><cc:requires
           rdf:resource="http://creativecommons.org/ns#Attribution" /><cc:permits
           rdf:resource="http://creativecommons.org/ns#DerivativeWorks" /><cc:requires
           rdf:resource="http://creativecommons.org/ns#ShareAlike" /></cc:License></rdf:RDF></metadata></svg>
